solid OpenSCAD_Model
  facet normal -1 0 0
    outer loop
      vertex 0 0 0
      vertex 0 30 1.6
      vertex 0 30 0
    endloop
  endfacet
  facet normal -1 -0 0
    outer loop
      vertex 0 30 1.6
      vertex 0 0 0
      vertex 0 0 1.6
    endloop
  endfacet
  facet normal 0 0 1
    outer loop
      vertex 8 30 1.6
      vertex 0 30 1.6
      vertex 8 24 1.6
    endloop
  endfacet
  facet normal 0 0 1
    outer loop
      vertex 43.2 24 1.6
      vertex 51.2 30 1.6
      vertex 43.2 30 1.6
    endloop
  endfacet
  facet normal 0 0 1
    outer loop
      vertex 51.2 30 1.6
      vertex 43.2 24 1.6
      vertex 51.2 0 1.6
    endloop
  endfacet
  facet normal -0 0 1
    outer loop
      vertex 8 24 1.6
      vertex 51.2 0 1.6
      vertex 43.2 24 1.6
    endloop
  endfacet
  facet normal 0 0 1
    outer loop
      vertex 8 24 1.6
      vertex 0 0 1.6
      vertex 51.2 0 1.6
    endloop
  endfacet
  facet normal 0 0 1
    outer loop
      vertex 0 0 1.6
      vertex 8 24 1.6
      vertex 0 30 1.6
    endloop
  endfacet
  facet normal 1 -0 0
    outer loop
      vertex 51.2 0 1.6
      vertex 51.2 30 0
      vertex 51.2 30 1.6
    endloop
  endfacet
  facet normal 1 0 0
    outer loop
      vertex 51.2 30 0
      vertex 51.2 0 1.6
      vertex 51.2 0 0
    endloop
  endfacet
  facet normal 0 1 -0
    outer loop
      vertex 51.2 30 0
      vertex 43.2 30 1.6
      vertex 51.2 30 1.6
    endloop
  endfacet
  facet normal 0 1 0
    outer loop
      vertex 43.2 30 1.6
      vertex 51.2 30 0
      vertex 43.2 30 0
    endloop
  endfacet
  facet normal 0 1 -0
    outer loop
      vertex 8 30 0
      vertex 0 30 1.6
      vertex 8 30 1.6
    endloop
  endfacet
  facet normal 0 1 0
    outer loop
      vertex 0 30 1.6
      vertex 8 30 0
      vertex 0 30 0
    endloop
  endfacet
  facet normal 0 0 -1
    outer loop
      vertex 51.2 0 0
      vertex 43.2 24 0
      vertex 51.2 30 0
    endloop
  endfacet
  facet normal 0 0 -1
    outer loop
      vertex 51.2 0 0
      vertex 8 24 0
      vertex 43.2 24 0
    endloop
  endfacet
  facet normal 0 0 -1
    outer loop
      vertex 0 0 0
      vertex 8 24 0
      vertex 51.2 0 0
    endloop
  endfacet
  facet normal 0 0 -1
    outer loop
      vertex 0 30 0
      vertex 8 24 0
      vertex 0 0 0
    endloop
  endfacet
  facet normal 0 0 -1
    outer loop
      vertex 8 24 0
      vertex 0 30 0
      vertex 8 30 0
    endloop
  endfacet
  facet normal -0 0 -1
    outer loop
      vertex 51.2 30 0
      vertex 43.2 24 0
      vertex 43.2 30 0
    endloop
  endfacet
  facet normal 0 -1 0
    outer loop
      vertex 0 0 0
      vertex 51.2 0 1.6
      vertex 0 0 1.6
    endloop
  endfacet
  facet normal 0 -1 -0
    outer loop
      vertex 51.2 0 1.6
      vertex 0 0 0
      vertex 51.2 0 0
    endloop
  endfacet
  facet normal 1 -0 0
    outer loop
      vertex 8 24 1.6
      vertex 8 30 0
      vertex 8 30 1.6
    endloop
  endfacet
  facet normal 1 0 0
    outer loop
      vertex 8 30 0
      vertex 8 24 1.6
      vertex 8 24 0
    endloop
  endfacet
  facet normal -1 0 0
    outer loop
      vertex 43.2 24 0
      vertex 43.2 30 1.6
      vertex 43.2 30 0
    endloop
  endfacet
  facet normal -1 -0 0
    outer loop
      vertex 43.2 30 1.6
      vertex 43.2 24 0
      vertex 43.2 24 1.6
    endloop
  endfacet
  facet normal 0 1 -0
    outer loop
      vertex 43.2 24 0
      vertex 8 24 1.6
      vertex 43.2 24 1.6
    endloop
  endfacet
  facet normal 0 1 0
    outer loop
      vertex 8 24 1.6
      vertex 43.2 24 0
      vertex 8 24 0
    endloop
  endfacet
endsolid OpenSCAD_Model
